<svg width="639" height="632" xmlns="http://www.w3.org/2000/svg">
 <g>
  <title>Layer 1</title>
  <path fill="#ffd4aa" d="m129.92499,1.7608c3.5,-1.27 7.329,-1.391 11.016,-1.499c19.311,-0.565 38.788,0.012 58.12,0.003l123.5,0.017l114.543,-0.03c19.236,-0.001 38.662,-0.598 57.874,0.05c5.594,0.188 10.478,1.209 15.554,3.607q2.922,1.372 5.47,3.354c0.173,0.08 0.358,0.141 0.521,0.241c6.784,4.193 11.815,11.853 14.155,19.344c3.455,11.058 1.906,25.923 1.892,37.591l-0.009,39.258l0.014,136.277l-0.012,76.958c0.024,13.921 0.659,28.132 -0.102,42.016q-0.103,2.12 -0.446,4.214q-0.343,2.094 -0.923,4.135q-0.579,2.042 -1.387,4.004q-0.807,1.962 -1.833,3.82c-4.834,8.908 -13.897,15.249 -23.535,18.025c-10.552,3.04 -47.137,1.541 -60.417,1.555l-120.722,-0.024l-123.326,0.018l-37.92,0.02c-7.381,0.017 -14.868,0.286 -22.239,-0.092c-6.699,-0.344 -12.742,-1.568 -18.626,-4.907q-0.878,-0.495 -1.73,-1.033q-0.852,-0.539 -1.675,-1.119q-0.824,-0.581 -1.617,-1.202q-0.794,-0.622 -1.555,-1.282q-0.761,-0.661 -1.488,-1.359q-0.727,-0.698 -1.418,-1.431q-0.691,-0.734 -1.344,-1.501q-0.653,-0.768 -1.266,-1.567q-0.614,-0.799 -1.187,-1.629q-0.572,-0.829 -1.103,-1.686q-0.53,-0.857 -1.016,-1.739q-0.487,-0.883 -0.928,-1.789q-0.442,-0.906 -0.837,-1.833q-0.395,-0.927 -0.743,-1.872q-0.348,-0.946 -0.649,-1.908q-0.3,-0.962 -0.551,-1.938c-2.68,-10.158 -1.399,-44.467 -1.384,-57.16l0.01,-102.713l-0.008,-109.661l-0.086,-34.969c-0.019,-7.117 -0.281,-14.334 0.185,-21.433c0.45,-6.858 2.029,-13.217 5.5,-19.189c5.257,-9.044 13.632,-15.28 23.728,-17.942zm178.115,177.193c-5.549,0.07 -10.668,0.235 -14.973,-3.898c-4.645,-4.461 -4.864,-10.588 -4.829,-16.588c0.04,-6.841 0.247,-13.694 0.179,-20.533c-9.837,0.037 -27.178,2.311 -34.619,-4.982c-2.103,-2.062 -3.271,-4.719 -3.861,-7.574c-1.613,-7.813 -0.407,-23.833 -0.474,-32.496c-39.944,0.013 -79.984,-0.513 -119.921,0.07l-0.129,-19.463l78.915,0.064c13.629,-0.012 27.53,-0.566 41.122,0.182c-0.057,-6.264 -0.844,-12.783 3.831,-17.732c4.499,-4.764 10.314,-4.953 16.511,-4.993l49.116,0.079c12.262,-0.002 24.588,-0.327 36.838,0.162c-0.255,-10.64 -0.654,-21.494 0.277,-32.103l-129.58,-0.058c-27.858,-0.02 -55.798,-0.48 -83.646,0.063c-6.72,0.436 -12.651,2.1 -17.311,7.333c-3.295,3.701 -4.882,8.14 -5.3,13.029c-0.541,6.315 -0.185,12.825 -0.126,19.165q0.125,13.768 0.05,27.536l-0.048,103.418l0.02,109.04c0.001,18.299 -1.048,40.033 0.442,57.941c0.428,5.148 3.346,10.3 7.309,13.593c3.47,2.884 7.594,4.395 12.062,4.697c7.919,0.535 16.029,0.187 23.974,0.191l44.028,0.016l137.42,0.019l101.11,-0.004l30.877,0.016c6.091,-0.002 12.472,0.305 18.52,-0.427q0.945,-0.107 1.875,-0.306q0.93,-0.2 1.835,-0.49q0.906,-0.29 1.778,-0.668q0.873,-0.378 1.704,-0.84q0.831,-0.462 1.613,-1.003q0.782,-0.542 1.506,-1.158q0.725,-0.615 1.385,-1.3q0.66,-0.684 1.25,-1.43c2.843,-3.637 3.987,-7.503 4.298,-12.037c0.549,-8.008 0.215,-16.191 0.212,-24.223l-0.024,-42.055l0.022,-128.421l0.045,-81.967c0.016,-12.277 1.102,-31.121 -0.622,-42.574c-0.843,-5.605 -3.876,-10.225 -8.505,-13.501c-3.13,-2.215 -6.458,-2.97 -10.197,-3.387c-5.115,-0.57 -10.449,-0.273 -15.594,-0.261l-24.42,0.009l-79.524,0.019l0.034,31.534c3.966,2.074 6.806,4.561 8.064,8.997c1.24,4.376 0.721,9.47 0.567,13.972l119.288,-0.06c-0.006,6.452 0.087,12.92 -0.034,19.37l-116.021,-0.063l-2.392,0.063c-1.855,2.276 -0.798,5.556 -0.704,8.3c0.153,4.483 0.015,9.013 -0.038,13.5c-0.133,11.44 -1.166,21.341 -14.756,22.994c-7.28,0.886 -15.355,0.2 -22.698,0.115c0.09,7.885 1.3,22.632 -0.296,29.681c-0.573,2.533 -1.677,4.83 -3.481,6.721c-4.277,4.48 -9.715,4.735 -15.488,4.72c-0.003,10.424 0.302,20.946 -0.128,31.358q20.456,10.243 40.779,20.748c6.646,3.42 14.522,6.54 20.359,11.216c1.966,1.575 3.138,3.459 3.885,5.853c1.719,5.503 1.351,66.312 0.75,75.151c-0.195,2.858 -0.467,6.224 -1.887,8.752c-1.344,2.393 -3.655,4.29 -5.945,5.737c-8.313,5.257 -17.92,9.245 -26.659,13.82c-7.815,4.09 -31.996,18.352 -38.428,19.872c-1.913,0.452 -4.327,-0.667 -6.07,-1.405c-10.861,-4.597 -21.583,-11.097 -32.101,-16.52c-10.401,-5.363 -24.491,-11.337 -33.801,-17.996c-3.738,-2.673 -4.186,-5.464 -4.849,-9.803c-1.35,-8.828 -0.377,-24.067 -0.376,-33.435c0.001,-12.043 -0.849,-26.927 0.158,-38.696c0.211,-2.469 0.791,-6.681 2.335,-8.65c3.885,-4.952 54.542,-30.232 63.614,-34.259q-0.187,-15.878 -0.102,-31.757zm0.016,159.871c-0.544,-15.93 -0.022,-32.05 -0.017,-48c-15.555,-7.443 -31.681,-15.354 -46.463,-24.226c-1.825,3.788 -0.609,48.53 -0.581,56.228c15.383,8.517 31.272,16.315 47,24.187l0.061,-8.189zm-37.787,-88.418c15.966,7.46 31.51,15.937 47.251,23.87l30.681,-15.709c5.297,-2.692 10.625,-5.738 16.121,-7.985c-5.986,-3.076 -44.895,-24.368 -47.546,-24.175q-23.181,12.14 -46.507,23.999zm36.91,-90.192c6.533,0.421 13.141,0.24 19.688,0.231c0.5,-7.436 0.023,-15.043 0.127,-22.503l-19.701,-0.089l-0.114,22.361zm65.651,106.681c-15.368,7.81 -31.513,15.334 -46.326,24.115c-0.016,7.187 -1.017,52.472 0.668,55.673c15.785,-7.134 31.009,-16.016 46.475,-23.84c-0.148,-6.688 0.493,-54.53 -0.817,-55.948zm-104.379,-197.101c0.006,16.437 0.155,32.888 -0.031,49.324c31.557,0.009 63.139,0.335 94.693,0.006l0.754,-0.221c0.712,-5.144 0.186,-10.97 0.184,-16.182l-0.028,-32.83c-31.834,-0.099 -63.75,0.454 -95.572,-0.097z" id="svg_1"/>
  <path fill="#ffd4aa" d="m261.57599,266.5988c0.546,-0.072 1.089,-0.249 1.639,-0.215c3.349,0.206 38.935,20.471 46.289,23.331q0.257,18.482 0.177,36.965c0.026,6.637 0.798,14.343 -0.423,20.825c-0.402,-2.886 -0.43,-5.868 -1.202,-8.68c-0.544,-15.93 -0.022,-32.05 -0.017,-48c-15.555,-7.443 -31.681,-15.354 -46.463,-24.226z" id="svg_2"/>
  <path fill="#ffd4aa" d="m101.22899,422.9908l31.972,-0.069c22.766,-0.034 42.86,-0.058 60.816,16.221c12.017,10.895 18.708,25.825 19.439,41.991c0.794,17.521 -5.129,33.032 -16.89,45.822c-16.999,16.277 -38.008,15.911 -60.04,15.86l-35.158,0.006c-0.58,-16.867 -0.222,-33.838 -0.236,-50.719q-0.143,-34.557 0.097,-69.112zm76.478,90.111c7.943,-8.561 11.204,-19.059 10.777,-30.671c-0.394,-10.701 -4.417,-21.424 -12.424,-28.746c-14.358,-13.13 -31.834,-10.004 -49.567,-10.947l-0.049,80.48c16.088,0.152 38.479,3.033 50.841,-9.636c0.148,-0.152 0.281,-0.32 0.422,-0.48z" id="svg_3"/>
  <path fill="#ffd4aa" d="m232.61099,422.9648l30.087,-0.108c21.999,-0.059 41.521,0.187 58.774,16.018c11.948,10.964 18.943,25.518 19.468,41.777c0.583,18.049 -4.15,33.426 -16.623,46.633c-17.163,15.454 -36.956,15.611 -58.807,15.566q-16.479,-0.126 -32.957,0.064c0.384,-18.149 0.092,-36.365 0.095,-54.52c0.003,-21.804 0.24,-43.63 -0.037,-65.43zm24.923,100.258c16.722,0.181 35.51,2.35 48.461,-10.523c0.107,-0.106 0.21,-0.217 0.314,-0.326c7.918,-9.251 11.122,-19.905 10.173,-32.061c-0.812,-10.401 -5.423,-20.836 -13.523,-27.585c-13.139,-10.947 -29.237,-9.901 -45.246,-9.948c-0.495,26.799 0.571,53.654 -0.179,80.443z" id="svg_4"/>
  <path fill="#ffd4aa" d="m392.90699,450.7858q1.167,-0.187 2.341,-0.316q1.174,-0.129 2.354,-0.2q1.179,-0.071 2.36,-0.085q1.182,-0.013 2.362,0.032q1.181,0.044 2.358,0.147q1.177,0.103 2.347,0.263q1.171,0.161 2.332,0.378q1.162,0.218 2.311,0.492q1.149,0.275 2.283,0.605q1.134,0.331 2.251,0.717q1.117,0.385 2.213,0.826q1.097,0.44 2.17,0.933q1.073,0.494 2.121,1.04q1.048,0.545 2.068,1.142q1.02,0.596 2.009,1.242q0.99,0.646 1.946,1.34q0.957,0.693 1.878,1.433q0.921,0.74 1.805,1.524q0.883,0.784 1.728,1.611q0.844,0.826 1.646,1.693q0.803,0.867 1.562,1.773q0.759,0.905 1.473,1.847q0.713,0.941 1.38,1.917q0.666,0.975 1.284,1.982q0.618,1.007 1.185,2.044q0.568,1.036 1.084,2.099q0.516,1.062 0.979,2.149q0.463,1.087 0.873,2.196q0.409,1.108 0.763,2.235q0.355,1.127 0.653,2.27q0.299,1.143 0.541,2.3q0.242,1.156 0.427,2.323q0.185,1.167 0.313,2.341q0.127,1.175 0.197,2.354q0.069,1.18 0.081,2.361q0.011,1.182 -0.035,2.362q-0.046,1.181 -0.151,2.358q-0.104,1.176 -0.266,2.347q-0.162,1.17 -0.381,2.331q-0.22,1.161 -0.496,2.31q-0.276,1.149 -0.608,2.282q-0.332,1.134 -0.719,2.25q-0.388,1.116 -0.829,2.212q-0.442,1.096 -0.937,2.169q-0.495,1.072 -1.042,2.12q-0.548,1.047 -1.145,2.066q-0.598,1.019 -1.246,2.007q-0.647,0.989 -1.342,1.944q-0.695,0.956 -1.436,1.876q-0.741,0.92 -1.526,1.803q-0.786,0.882 -1.613,1.725q-0.828,0.843 -1.696,1.645q-0.868,0.801 -1.775,1.559q-0.906,0.757 -1.849,1.47q-0.942,0.712 -1.919,1.377q-0.976,0.665 -1.984,1.282q-1.008,0.616 -2.045,1.182q-1.037,0.566 -2.101,1.081q-1.063,0.514 -2.151,0.976q-1.087,0.462 -2.196,0.87q-1.109,0.407 -2.237,0.76q-1.127,0.353 -2.271,0.65q-1.143,0.297 -2.3,0.537q-1.157,0.241 -2.324,0.424q-1.165,0.183 -2.338,0.309q-1.172,0.125 -2.35,0.193q-1.177,0.068 -2.356,0.079q-1.18,0.01 -2.358,-0.038q-1.178,-0.047 -2.353,-0.153q-1.175,-0.105 -2.343,-0.268q-1.168,-0.162 -2.326,-0.382q-1.159,-0.22 -2.306,-0.496q-1.146,-0.277 -2.278,-0.609q-1.131,-0.332 -2.245,-0.72q-1.114,-0.387 -2.208,-0.828q-1.093,-0.442 -2.164,-0.936q-1.071,-0.495 -2.116,-1.041q-1.045,-0.547 -2.062,-1.144q-1.017,-0.597 -2.004,-1.243q-0.986,-0.646 -1.94,-1.34q-0.954,-0.693 -1.872,-1.433q-0.919,-0.74 -1.8,-1.524q-0.881,-0.783 -1.723,-1.609q-0.842,-0.826 -1.642,-1.693q-0.8,-0.866 -1.557,-1.771q-0.757,-0.904 -1.468,-1.845q-0.712,-0.94 -1.376,-1.914q-0.665,-0.975 -1.281,-1.98q-0.616,-1.006 -1.182,-2.041q-0.566,-1.034 -1.08,-2.096q-0.515,-1.061 -0.977,-2.146q-0.461,-1.085 -0.87,-2.191q-0.408,-1.107 -0.761,-2.232q-0.354,-1.125 -0.651,-2.266q-0.298,-1.142 -0.54,-2.296q-0.241,-1.154 -0.426,-2.319q-0.185,-1.165 -0.312,-2.337q-0.127,-1.173 -0.197,-2.35q-0.07,-1.177 -0.082,-2.356q-0.012,-1.18 0.034,-2.358q0.046,-1.179 0.15,-2.354q0.103,-1.174 0.264,-2.343q0.162,-1.168 0.38,-2.327q0.218,-1.159 0.493,-2.306q0.274,-1.147 0.605,-2.279q0.331,-1.132 0.716,-2.246q0.386,-1.115 0.826,-2.209q0.44,-1.094 0.933,-2.166q0.493,-1.071 1.038,-2.117q0.545,-1.046 1.14,-2.064q0.596,-1.018 1.241,-2.005q0.644,-0.988 1.337,-1.942q0.692,-0.955 1.431,-1.875q0.738,-0.919 1.521,-1.802q0.782,-0.882 1.607,-1.725q0.825,-0.843 1.69,-1.644q0.865,-0.801 1.769,-1.56q0.903,-0.758 1.843,-1.47q0.939,-0.713 1.912,-1.379q0.974,-0.666 1.979,-1.284q1.004,-0.617 2.038,-1.185q1.034,-0.567 2.095,-1.083q1.06,-0.516 2.145,-0.98q1.084,-0.463 2.19,-0.873q1.106,-0.409 2.23,-0.764q1.125,-0.355 2.266,-0.655q1.14,-0.299 2.294,-0.542q1.154,-0.244 2.319,-0.43zm12.785,73.326c6.66,-1.78 12.106,-4.824 15.765,-10.913c4.002,-6.659 4.689,-15.923 2.563,-23.336c-1.741,-6.069 -5.574,-11.553 -11.195,-14.581c-5.266,-2.836 -10.548,-3.069 -16.373,-2.762c-6.846,1.621 -12.16,4.515 -15.983,10.68c-4.273,6.891 -4.991,15.786 -3,23.54c1.531,5.961 4.765,11.275 10.153,14.462c5.566,3.293 11.802,3.721 18.07,2.91z" id="svg_5"/>
  <path fill="#ffd4aa" d="m25.44299,422.6408c11.022,-0.753 23.204,-0.739 33.734,2.9c7.746,2.676 14.796,7.851 18.271,15.46c3.341,7.32 3.363,17.946 0.315,25.372c-3.019,7.357 -8.692,12.222 -15.84,15.277c8.708,3.329 15.866,6.254 20.003,15.418c3.55,7.863 3.411,17.613 0.416,25.634c-3.103,8.309 -9.253,13.509 -17.174,17.044c-17.663,7.883 -47.261,6.671 -65.071,-0.164q-0.04,-12.039 0.274,-24.073c1.931,0.705 3.776,1.587 5.64,2.448c8.311,4.236 18.179,5.676 27.396,5.902c7.437,0.183 16.576,-0.175 22.145,-5.8c2.807,-2.837 4.232,-6.603 4.156,-10.579c-0.066,-3.496 -1.448,-6.813 -3.998,-9.224c-7.665,-7.249 -25.72,-4.898 -35.729,-4.807l0.009,-20.64c8.882,-0.437 20.451,1.664 28.604,-2.477c3.439,-1.747 6.412,-4.611 7.55,-8.375q0.189,-0.628 0.314,-1.272q0.125,-0.644 0.185,-1.297q0.06,-0.653 0.054,-1.309q-0.006,-0.656 -0.077,-1.308q-0.072,-0.651 -0.208,-1.293q-0.136,-0.642 -0.336,-1.266q-0.2,-0.625 -0.461,-1.226q-0.262,-0.602 -0.582,-1.174c-2.444,-4.32 -6.965,-6.69 -11.649,-7.805c-14.991,-3.569 -30.588,0.875 -43.383,8.713c0.389,-7.353 0.082,-14.809 -0.001,-22.174c8.193,-4.847 15.993,-7.069 25.443,-7.905z" id="svg_6"/>
  <path fill="#ffd4aa" d="m596.10099,452.1158c2.155,-0.262 4.46,-0.219 6.631,-0.216c10.046,0.013 19.351,2.778 26.545,10.066c10.877,11.019 9.745,27.445 9.533,41.719c-18.568,-0.476 -37.242,0.216 -55.827,0.093c0.72,2.889 1.422,5.876 2.762,8.548c2.657,5.301 6.674,9.08 12.381,10.876c13.962,4.394 26.572,-1.341 38.755,-7.584c-0.672,7.252 -0.327,14.845 -0.412,22.142c-6.896,3.359 -13.939,5.642 -21.563,6.631c-13.435,1.744 -28.018,-0.601 -38.89,-9.105c-9.518,-7.445 -14.661,-18.736 -16.087,-30.561c-1.577,-13.082 1.016,-27.476 9.305,-37.994c6.89,-8.741 15.956,-13.245 26.867,-14.615zm-12.91,34.736q9.307,0.062 18.613,-0.089c5.004,0.035 10.028,0.17 15.03,0.055c-1.083,-5.679 -2.345,-11.269 -7.458,-14.767c-3.536,-2.42 -7.16,-2.718 -11.275,-2.496c-5.724,1.908 -9.928,5.037 -12.677,10.538c-1.061,2.122 -1.695,4.458 -2.233,6.759z" id="svg_7"/>
  <path fill="#ffd4aa" d="m507.79199,452.0898c0.849,-0.091 1.679,-0.154 2.534,-0.171c9.885,-0.197 20.013,1.073 27.356,8.419c3.802,3.803 5.999,8.595 7.221,13.761c2.492,10.54 1.657,22.001 1.646,32.766l-0.106,36.026q-12.55,-0.177 -25.099,0.009l0.097,-34.442c0.018,-7.051 0.543,-14.519 -0.586,-21.483c-0.5,-3.081 -1.356,-5.941 -3.374,-8.382c-3.002,-3.63 -7.316,-5.599 -11.966,-5.959c-5.83,-0.451 -10.424,0.894 -14.869,4.691c-3.198,3.365 -5.15,7.003 -6.305,11.512c-2.738,10.684 -1.351,41.685 -1.33,54.044q-11.754,-0.143 -23.507,0.023l0.026,-90.422q11.73,0.047 23.46,-0.057l0.091,13.8c7.68,-8.034 13.563,-12.465 24.711,-14.135z" id="svg_8"/>
  <path fill="#ffd4aa" d="m112.39799,585.9628c9.263,-0.08 21.758,-1.63 29.751,4.023c4.663,3.299 7.087,8.391 7.887,13.939c1.116,7.737 -0.73,14.027 -5.387,20.154c-9.071,8.132 -20.907,6.531 -32.259,6.485l0.008,-44.601zm9.246,35.969c6.179,0.165 10.439,0.52 15.403,-3.72c2.628,-3.894 4.315,-8.716 3.433,-13.462c-0.634,-3.408 -2.74,-6.296 -5.695,-8.077c-4.106,-2.475 -8.42,-2.247 -13.026,-2.243q-0.223,13.75 -0.115,27.502z" id="svg_9"/>
  <path fill="#ffd4aa" d="m238.71599,585.9278c7.515,0 16.607,-0.946 23.859,0.869c3.325,0.833 6.427,2.648 8.187,5.669c2.032,3.488 2.364,8.478 1.177,12.297c-1.307,4.203 -5.012,6.857 -8.768,8.763c3.833,5.851 7.577,11.814 11.899,17.319l-5.906,-0.091l-6.287,0.022c-2.552,-4.154 -6.124,-11.828 -10.218,-14.292c-1.33,-0.801 -2.845,-0.84 -4.308,-0.406c-1.046,4.452 -0.427,9.836 -0.364,14.433l-9.45,0.081c0.428,-14.859 -0.006,-29.793 0.179,-44.664zm9.278,21.501c4.357,0.05 8.87,0.558 12.622,-2.089c1.117,-1.554 2.548,-4.008 2.223,-6.014c-0.227,-1.401 -0.893,-2.347 -2.08,-3.092c-3.595,-2.256 -8.684,-1.862 -12.765,-1.796l0,12.991z" id="svg_10"/>
  <path fill="#ffd4aa" d="m488.55599,585.8418c3.173,0.104 6.361,0.057 9.536,0.069c-0.124,6.706 0.928,41.38 -0.392,44.599l-1.592,-0.063c-2.146,0.05 -4.298,0.248 -6.44,0.394c-6.399,-10.155 -14.574,-19.486 -21.461,-29.366c0.403,9.662 0.29,19.328 0.261,28.997c-3.088,-0.035 -6.069,-0.081 -9.128,0.416c-0.416,-14.933 -0.164,-29.929 -0.238,-44.872l9.263,-0.052c7.5,8.168 13.436,17.889 20.326,26.578c-0.585,-8.822 -0.184,-17.854 -0.135,-26.7z" id="svg_11"/>
  <path fill="#ffd4aa" d="m320.84799,585.8748l9.539,0.113c7.677,7.96 13.365,18.027 20.643,26.397c-0.359,-8.808 -0.013,-17.6 -0.296,-26.402l9.331,0.034c-0.013,6.187 1.019,41.492 -0.368,44.437l-1.59,0.008l-5.98,0.258c-5.444,-8.929 -15.341,-20.648 -22.08,-29.111c-0.168,9.599 -0.128,19.39 0.347,28.978c-3.185,-0.052 -6.311,0.063 -9.49,0.27c0.226,-14.983 -0.014,-29.997 -0.056,-44.982z" id="svg_12"/>
  <path fill="#ffd4aa" d="m191.91199,585.9358c8.228,-0.04 21.461,-1.763 28.255,3.131c2.955,2.129 4.708,5.301 5.268,8.869c0.685,4.364 -0.259,8.954 -2.953,12.495c-3.205,4.212 -6.913,5.269 -11.873,5.999l-9.074,0.108l-0.013,14.192c-3.356,-0.243 -6.533,-0.09 -9.878,0.227c0.597,-14.944 0.199,-30.053 0.268,-45.021zm9.583,22.094c4.16,-0.031 8.638,0.445 12.138,-2.183c1.104,-2.013 2.353,-4.806 1.556,-7.137c-0.561,-1.642 -1.859,-2.571 -3.395,-3.193c-3.21,-1.299 -6.862,-1.141 -10.272,-1.145l-0.027,13.658z" id="svg_13"/>
  <path fill="#ffd4aa" d="m537.25099,585.1008c6.167,-0.589 12.068,0.935 17.715,3.25c0.204,3.584 0.214,7.054 0.026,10.639c-4.919,-3.111 -10.407,-5.912 -16.427,-5.053q-0.653,0.088 -1.295,0.242q-0.641,0.153 -1.263,0.37q-0.622,0.218 -1.22,0.497q-0.597,0.279 -1.163,0.616q-0.566,0.338 -1.096,0.731q-0.529,0.393 -1.016,0.838q-0.487,0.444 -0.926,0.936q-0.44,0.491 -0.828,1.024c-2.547,3.469 -3.398,8.049 -2.76,12.261c0.572,3.776 2.389,7.327 5.639,9.465c4.521,2.974 9.375,2.122 14.334,1.133c0.21,-2.695 0.161,-5.397 0.158,-8.099l-7.632,0.032l-0.065,-7.737l5.677,-0.176l10.89,-0.066q-0.041,10.822 -0.307,21.641c-2.956,1.447 -6.136,2.666 -9.356,3.377c-6.689,1.479 -14.116,0.891 -19.94,-2.962c-5.244,-3.469 -8.689,-9.184 -9.675,-15.362c-1.038,-6.502 0.467,-13.916 4.535,-19.167c4.036,-5.21 9.623,-7.633 15.995,-8.43z" id="svg_14"/>
  <path fill="#ffd4aa" d="m75.73499,585.0288q1.958,-0.047 3.915,0.002c4.525,0.147 9.442,2.038 12.486,5.475c2.009,2.269 3.203,5.152 2.959,8.212c-0.332,4.167 -3.048,7.065 -6.113,9.576c2.519,1.739 4.569,3.404 5.922,6.209c1.185,2.458 1.503,4.962 0.495,7.535c-1.421,3.627 -4.834,6.349 -8.349,7.809c-7.588,3.151 -15.723,1.73 -22.99,-1.434c-0.014,-3.009 0.182,-5.959 0.417,-8.956c1.909,0.802 3.834,1.636 5.793,2.306c3.954,1.351 8.977,1.825 12.772,-0.267c1.379,-0.76 2.178,-1.629 2.613,-3.172c-0.065,-1.068 -0.323,-1.781 -1.012,-2.624c-2.701,-3.302 -7.355,-3.445 -11.242,-3.922c-0.013,-2.031 0.009,-3.922 0.352,-5.926c2.556,-1.453 5.947,-0.136 8.521,-1.791c1.141,-0.733 1.893,-2.094 2.209,-3.384c0.28,-1.146 0.18,-2.151 -0.459,-3.171c-1.55,-2.471 -4.067,-3.051 -6.701,-3.785c-4.641,1.077 -8.203,2.314 -12.221,4.904l-0.801,-9.614c3.7,-2.154 7.28,-3.142 11.434,-3.982z" id="svg_15"/>
  <path fill="#ffd4aa" d="m377.32599,585.8958q17.807,0.123 35.614,0.034l-0.255,8.546l-12.744,0.02l0.019,23.211l0.025,12.805c-3.181,-0.032 -6.371,0.043 -9.553,0.068l-0.031,-36.059c-4.299,-0.034 -8.655,-0.217 -12.932,0.268l-0.143,-8.893z" id="svg_16"/>
  <path fill="#ffd4aa" d="m290.11499,585.9798l9.817,-0.038l-0.084,44.52c-3.315,-0.021 -6.539,0.093 -9.84,0.399c1.032,-14.394 0.161,-30.296 0.107,-44.881z" id="svg_17"/>
  <path fill="#ffd4aa" d="m428.03999,586.0828l9.188,-0.104q0.412,22.295 0.002,44.589c-3.05,-0.158 -6.159,-0.036 -9.216,-0.032l0.026,-44.453z" id="svg_18"/>
 </g>

</svg>