<svg width="433" height="395" xmlns="http://www.w3.org/2000/svg">
 <g>
  <title>Layer 1</title>
  <path fill="#ffd4aa" d="m29.648,1.7608c3.5,-1.27 7.329,-1.391 11.016,-1.499c19.311,-0.565 38.788,0.012 58.12,0.003l123.5,0.017l114.543,-0.03c19.236,-0.001 38.662,-0.598 57.874,0.05c5.594,0.188 10.478,1.209 15.554,3.607q2.922,1.372 5.47,3.354c0.173,0.08 0.358,0.141 0.521,0.241c6.784,4.193 11.815,11.853 14.155,19.344c3.455,11.058 1.906,25.923 1.892,37.591l-0.009,39.258l0.014,136.277l-0.012,76.958c0.024,13.921 0.659,28.132 -0.102,42.016q-0.103,2.12 -0.446,4.214q-0.343,2.094 -0.923,4.135q-0.579,2.042 -1.387,4.004q-0.807,1.962 -1.833,3.82c-4.834,8.908 -13.897,15.249 -23.535,18.025c-10.552,3.04 -47.137,1.541 -60.417,1.555l-120.722,-0.024l-123.326,0.018l-37.92,0.02c-7.381,0.017 -14.868,0.286 -22.239,-0.092c-6.699,-0.344 -12.742,-1.568 -18.626,-4.907q-0.878,-0.495 -1.73,-1.033q-0.852,-0.539 -1.675,-1.119q-0.824,-0.581 -1.617,-1.202q-0.794,-0.622 -1.555,-1.282q-0.761,-0.661 -1.488,-1.359q-0.727,-0.698 -1.418,-1.431q-0.691,-0.734 -1.344,-1.501q-0.653,-0.768 -1.266,-1.567q-0.614,-0.799 -1.187,-1.629q-0.572,-0.829 -1.103,-1.686q-0.53,-0.857 -1.016,-1.739q-0.487,-0.883 -0.928,-1.789q-0.442,-0.906 -0.837,-1.833q-0.395,-0.927 -0.743,-1.872q-0.348,-0.946 -0.649,-1.908q-0.3,-0.962 -0.551,-1.938c-2.68,-10.158 -1.399,-44.467 -1.384,-57.16l0.01,-102.713l-0.008,-109.661l-0.086,-34.969c-0.019,-7.117 -0.281,-14.334 0.185,-21.433c0.45,-6.858 2.029,-13.217 5.5,-19.189c5.257,-9.044 13.632,-15.28 23.728,-17.942zm178.115,177.193c-5.549,0.07 -10.668,0.235 -14.973,-3.898c-4.645,-4.461 -4.864,-10.588 -4.829,-16.588c0.04,-6.841 0.247,-13.694 0.179,-20.533c-9.837,0.037 -27.178,2.311 -34.619,-4.982c-2.103,-2.062 -3.271,-4.719 -3.861,-7.574c-1.613,-7.813 -0.407,-23.833 -0.474,-32.496c-39.944,0.013 -79.984,-0.513 -119.921,0.07l-0.129,-19.463l78.915,0.064c13.629,-0.012 27.53,-0.566 41.122,0.182c-0.057,-6.264 -0.844,-12.783 3.831,-17.732c4.499,-4.764 10.314,-4.953 16.511,-4.993l49.116,0.079c12.262,-0.002 24.588,-0.327 36.838,0.162c-0.255,-10.64 -0.654,-21.494 0.277,-32.103l-129.58,-0.058c-27.858,-0.02 -55.798,-0.48 -83.646,0.063c-6.72,0.436 -12.651,2.1 -17.311,7.333c-3.295,3.701 -4.882,8.14 -5.3,13.029c-0.541,6.315 -0.185,12.825 -0.126,19.165q0.125,13.768 0.05,27.536l-0.048,103.418l0.02,109.04c0.001,18.299 -1.048,40.033 0.442,57.941c0.428,5.148 3.346,10.3 7.309,13.593c3.47,2.884 7.594,4.395 12.062,4.697c7.919,0.535 16.029,0.187 23.974,0.191l44.028,0.016l137.42,0.019l101.11,-0.004l30.877,0.016c6.091,-0.002 12.472,0.305 18.52,-0.427q0.945,-0.107 1.875,-0.306q0.93,-0.2 1.835,-0.49q0.906,-0.29 1.778,-0.668q0.873,-0.378 1.704,-0.84q0.831,-0.462 1.613,-1.003q0.782,-0.542 1.506,-1.158q0.725,-0.615 1.385,-1.3q0.66,-0.684 1.25,-1.43c2.843,-3.637 3.987,-7.503 4.298,-12.037c0.549,-8.008 0.215,-16.191 0.212,-24.223l-0.024,-42.055l0.022,-128.421l0.045,-81.967c0.016,-12.277 1.102,-31.121 -0.622,-42.574c-0.843,-5.605 -3.876,-10.225 -8.505,-13.501c-3.13,-2.215 -6.458,-2.97 -10.197,-3.387c-5.115,-0.57 -10.449,-0.273 -15.594,-0.261l-24.42,0.009l-79.524,0.019l0.034,31.534c3.966,2.074 6.806,4.561 8.064,8.997c1.24,4.376 0.721,9.47 0.567,13.972l119.288,-0.06c-0.006,6.452 0.087,12.92 -0.034,19.37l-116.021,-0.063l-2.392,0.063c-1.855,2.276 -0.798,5.556 -0.704,8.3c0.153,4.483 0.015,9.013 -0.038,13.5c-0.133,11.44 -1.166,21.341 -14.756,22.994c-7.28,0.886 -15.355,0.2 -22.698,0.115c0.09,7.885 1.3,22.632 -0.296,29.681c-0.573,2.533 -1.677,4.83 -3.481,6.721c-4.277,4.48 -9.715,4.735 -15.488,4.72c-0.003,10.424 0.302,20.946 -0.128,31.358q20.456,10.243 40.779,20.748c6.646,3.42 14.522,6.54 20.359,11.216c1.966,1.575 3.138,3.459 3.885,5.853c1.719,5.503 1.351,66.312 0.75,75.151c-0.195,2.858 -0.467,6.224 -1.887,8.752c-1.344,2.393 -3.655,4.29 -5.945,5.737c-8.313,5.257 -17.92,9.245 -26.659,13.82c-7.815,4.09 -31.996,18.352 -38.428,19.872c-1.913,0.452 -4.327,-0.667 -6.07,-1.405c-10.861,-4.597 -21.583,-11.097 -32.101,-16.52c-10.401,-5.363 -24.491,-11.337 -33.801,-17.996c-3.738,-2.673 -4.186,-5.464 -4.849,-9.803c-1.35,-8.828 -0.377,-24.067 -0.376,-33.435c0.001,-12.043 -0.849,-26.927 0.158,-38.696c0.211,-2.469 0.791,-6.681 2.335,-8.65c3.885,-4.952 54.542,-30.232 63.614,-34.259q-0.187,-15.878 -0.102,-31.757zm0.016,159.871c-0.544,-15.93 -0.022,-32.05 -0.017,-48c-15.555,-7.443 -31.681,-15.354 -46.463,-24.226c-1.825,3.788 -0.609,48.53 -0.581,56.228c15.383,8.517 31.272,16.315 47,24.187l0.061,-8.189zm-37.787,-88.418c15.966,7.46 31.51,15.937 47.251,23.87l30.681,-15.709c5.297,-2.692 10.625,-5.738 16.121,-7.985c-5.986,-3.076 -44.895,-24.368 -47.546,-24.175q-23.181,12.14 -46.507,23.999zm36.91,-90.192c6.533,0.421 13.141,0.24 19.688,0.231c0.5,-7.436 0.023,-15.043 0.127,-22.503l-19.701,-0.089l-0.114,22.361zm65.651,106.681c-15.368,7.81 -31.513,15.334 -46.326,24.115c-0.016,7.187 -1.017,52.472 0.668,55.673c15.785,-7.134 31.009,-16.016 46.475,-23.84c-0.148,-6.688 0.493,-54.53 -0.817,-55.948zm-104.379,-197.101c0.006,16.437 0.155,32.888 -0.031,49.324c31.557,0.009 63.139,0.335 94.693,0.006l0.754,-0.221c0.712,-5.144 0.186,-10.97 0.184,-16.182l-0.028,-32.83c-31.834,-0.099 -63.75,0.454 -95.572,-0.097z" id="svg_1"/>
  <path fill="#ffd4aa" d="m161.299,266.5988c0.546,-0.072 1.089,-0.249 1.639,-0.215c3.349,0.206 38.935,20.471 46.289,23.331q0.257,18.482 0.177,36.965c0.026,6.637 0.798,14.343 -0.423,20.825c-0.402,-2.886 -0.43,-5.868 -1.202,-8.68c-0.544,-15.93 -0.022,-32.05 -0.017,-48c-15.555,-7.443 -31.681,-15.354 -46.463,-24.226z" id="svg_2"/>
 </g>

</svg>